<svg width="40" height="40" fill="none" xmlns="http://www.w3.org/2000/svg"><circle cx="20" cy="20" r="20" fill="#FF005C"/><path d="M20 18.75a3.129 3.129 0 0 1-3.125-3.125A3.129 3.129 0 0 1 20 12.5a3.129 3.129 0 0 1 3.125 3.125 1.25 1.25 0 0 0 2.5 0 5.634 5.634 0 0 0-4.375-5.483V8.75a1.25 1.25 0 0 0-2.5 0v1.392a5.634 5.634 0 0 0-4.375 5.483A5.631 5.631 0 0 0 20 21.25a3.129 3.129 0 0 1 3.125 3.125A3.129 3.129 0 0 1 20 27.5a3.129 3.129 0 0 1-3.125-3.125 1.25 1.25 0 0 0-2.5 0 5.634 5.634 0 0 0 4.375 5.483v1.392a1.25 1.25 0 0 0 2.5 0v-1.392a5.634 5.634 0 0 0 4.375-5.483A5.631 5.631 0 0 0 20 18.75Z" fill="#fff"/></svg>