<svg width="40" height="40" fill="none" xmlns="http://www.w3.org/2000/svg"><g clip-path="url(#a)"><circle cx="20" cy="20" r="20" fill="#FF005C"/><path d="M30.074 14.178c-.029-.632-.029-1.235-.029-1.837a.846.846 0 0 0-.86-.861c-3.588 0-6.315-1.033-8.582-3.243a.885.885 0 0 0-1.205 0c-2.267 2.21-4.994 3.243-8.581 3.243a.846.846 0 0 0-.861.86c0 .604 0 1.206-.03 1.838-.114 6.026-.286 14.292 9.787 17.765L20 32l.287-.057c10.045-3.473 9.902-11.71 9.787-17.765Zm-10.762 8.351a.926.926 0 0 1-.603.23h-.029a.808.808 0 0 1-.602-.287l-2.67-2.956 1.292-1.148 2.095 2.324 4.65-4.42 1.176 1.263-5.31 4.994Z" fill="#fff"/></g><defs><clipPath id="a"><path fill="#fff" d="M0 0h40v40H0z"/></clipPath></defs></svg>