<svg width="208" height="25" fill="none" xmlns="http://www.w3.org/2000/svg"><path d="M14.808 9.51c1.04.364 1.855.936 2.444 1.716.59.763.884 1.69.884 2.782 0 1.595-.641 2.825-1.924 3.692S13.075 19 10.648 19H.82V.8h9.308c2.323 0 4.09.433 5.304 1.3 1.213.85 1.82 2.002 1.82 3.458 0 .867-.217 1.647-.65 2.34-.416.676-1.014 1.213-1.794 1.612ZM5.916 4.518v3.51h3.536c1.733 0 2.6-.59 2.6-1.768 0-1.161-.867-1.742-2.6-1.742H5.916Zm4.316 10.764c1.803 0 2.704-.615 2.704-1.846 0-1.23-.901-1.846-2.704-1.846H5.916v3.692h4.316Zm18.526-1.118H25.95V19h-5.148V.8h8.32c1.647 0 3.077.277 4.29.832 1.214.537 2.15 1.317 2.808 2.34.66 1.005.988 2.193.988 3.562 0 1.317-.312 2.47-.936 3.458-.606.97-1.482 1.733-2.626 2.288L37.572 19H32.06l-3.302-4.836Zm3.25-6.63c0-.85-.268-1.508-.806-1.976-.537-.468-1.334-.702-2.392-.702h-2.86v5.33h2.86c1.058 0 1.855-.225 2.392-.676.538-.468.806-1.127.806-1.976Zm20.234 7.93h-7.695L43.117 19h-5.252L45.898.8h5.07l8.06 18.2h-5.355l-1.43-3.536Zm-1.508-3.796-2.34-5.824-2.34 5.824h4.68ZM77.804.8V19h-4.238l-8.034-9.698V19h-5.044V.8h4.238l8.034 9.698V.8h5.044Zm3.631 0h8.606c1.994 0 3.762.373 5.304 1.118 1.543.745 2.739 1.803 3.588 3.172.85 1.37 1.274 2.973 1.274 4.81 0 1.837-.424 3.44-1.274 4.81-.85 1.37-2.045 2.427-3.588 3.172-1.542.745-3.31 1.118-5.304 1.118h-8.606V.8Zm8.398 14.092c1.56 0 2.808-.442 3.744-1.326.954-.884 1.43-2.106 1.43-3.666s-.476-2.782-1.43-3.666c-.936-.884-2.184-1.326-3.744-1.326h-3.25v9.984h3.25Z" fill="#FF005C"/><path d="M119.738 19.13c-1.785 0-3.397-.399-4.836-1.196a8.96 8.96 0 0 1-3.38-3.302c-.815-1.404-1.222-2.981-1.222-4.732 0-1.75.407-3.328 1.222-4.732a8.96 8.96 0 0 1 3.38-3.302c1.439-.797 3.051-1.196 4.836-1.196 1.317 0 2.531.217 3.64.65a7.375 7.375 0 0 1 2.834 1.872l-.832.858c-1.456-1.439-3.319-2.158-5.59-2.158-1.525 0-2.912.347-4.16 1.04a7.585 7.585 0 0 0-2.938 2.886c-.711 1.213-1.066 2.574-1.066 4.082s.355 2.877 1.066 4.108a7.64 7.64 0 0 0 2.938 2.86c1.248.693 2.635 1.04 4.16 1.04 2.253 0 4.117-.728 5.59-2.184l.832.858c-.78.832-1.733 1.465-2.86 1.898-1.109.433-2.314.65-3.614.65Zm21.228-6.604h-11.674c.035 1.057.303 2.002.806 2.834a5.215 5.215 0 0 0 2.028 1.898c.867.45 1.837.676 2.912.676.884 0 1.699-.156 2.444-.468a4.877 4.877 0 0 0 1.898-1.43l.754.858a5.773 5.773 0 0 1-2.236 1.638c-.884.381-1.846.572-2.886.572-1.352 0-2.557-.295-3.614-.884a6.507 6.507 0 0 1-2.496-2.444c-.589-1.04-.884-2.227-.884-3.562 0-1.317.277-2.496.832-3.536.572-1.057 1.352-1.88 2.34-2.47.988-.59 2.097-.884 3.328-.884 1.231 0 2.331.295 3.302.884a5.986 5.986 0 0 1 2.314 2.418c.572 1.04.858 2.219.858 3.536l-.026.364Zm-6.448-6.058c-.953 0-1.811.217-2.574.65a4.82 4.82 0 0 0-1.846 1.794c-.451.763-.711 1.63-.78 2.6h10.4c-.052-.97-.312-1.837-.78-2.6a5.082 5.082 0 0 0-1.846-1.794c-.763-.433-1.621-.65-2.574-.65Zm17.56-1.144c1.265 0 2.409.295 3.432.884a6.24 6.24 0 0 1 2.392 2.444c.589 1.04.884 2.227.884 3.562s-.295 2.53-.884 3.588a6.24 6.24 0 0 1-2.392 2.444c-1.023.572-2.167.858-3.432.858-1.196 0-2.28-.277-3.25-.832a5.94 5.94 0 0 1-2.262-2.366v8.138h-1.3V5.428h1.248v3.198c.537-1.04 1.291-1.846 2.262-2.418.988-.59 2.088-.884 3.302-.884ZM152 17.934c1.04 0 1.976-.243 2.808-.728a5.108 5.108 0 0 0 1.95-2.028c.485-.867.728-1.855.728-2.964 0-1.11-.243-2.097-.728-2.964a5.108 5.108 0 0 0-1.95-2.028c-.832-.485-1.768-.728-2.808-.728-1.04 0-1.976.243-2.808.728a5.347 5.347 0 0 0-1.95 2.028c-.468.867-.702 1.855-.702 2.964 0 1.11.234 2.097.702 2.964a5.347 5.347 0 0 0 1.95 2.028c.832.485 1.768.728 2.808.728Zm19.047-5.928c1.993.347 2.99 1.465 2.99 3.354 0 1.179-.433 2.08-1.3 2.704-.849.624-2.132.936-3.848.936h-5.876V5.428h5.72c1.508 0 2.687.303 3.536.91.867.59 1.3 1.439 1.3 2.548 0 .797-.225 1.465-.676 2.002-.433.52-1.049.893-1.846 1.118Zm-6.76-.39h4.368c1.161 0 2.054-.217 2.678-.65.624-.45.936-1.092.936-1.924 0-.85-.312-1.482-.936-1.898-.607-.433-1.499-.65-2.678-.65h-4.368v5.122Zm4.576 6.318c2.583 0 3.874-.875 3.874-2.626 0-.919-.295-1.595-.884-2.028-.589-.433-1.517-.65-2.782-.65h-4.784v5.304h4.576Zm9.791-12.506h1.3v11.57l9.672-11.57h1.144V19h-1.3V7.43L179.798 19h-1.144V5.428Zm23.208 13.676c-1.317 0-2.496-.295-3.536-.884a6.372 6.372 0 0 1-2.444-2.444c-.589-1.057-.884-2.245-.884-3.562 0-1.335.295-2.522.884-3.562a6.145 6.145 0 0 1 2.444-2.444c1.04-.59 2.219-.884 3.536-.884 1.092 0 2.08.217 2.964.65a5.25 5.25 0 0 1 2.184 1.846l-.962.702a4.492 4.492 0 0 0-1.82-1.508c-.71-.347-1.499-.52-2.366-.52-1.057 0-2.01.243-2.86.728a5.11 5.11 0 0 0-1.976 2.002c-.468.867-.702 1.863-.702 2.99 0 1.127.234 2.123.702 2.99a5.296 5.296 0 0 0 1.976 2.028c.85.468 1.803.702 2.86.702.867 0 1.656-.165 2.366-.494a4.7 4.7 0 0 0 1.82-1.534l.962.702a5.441 5.441 0 0 1-2.184 1.872c-.884.416-1.872.624-2.964.624Z" fill="#000"/></svg>